<svg width="1764" height="633" xmlns="http://www.w3.org/2000/svg" xmlns:xlink="http://www.w3.org/1999/xlink" overflow="hidden"><defs><clipPath id="clip0"><rect x="156" y="1662" width="1764" height="633"/></clipPath></defs><g clip-path="url(#clip0)" transform="translate(-156 -1662)"><path d="M186 2252 682.975 2002 1810 2002 1313.02 2252Z" stroke="#000000" stroke-width="13.75" stroke-miterlimit="8" fill="#E7E6E6" fill-rule="evenodd"/><path d="M186 2186 682.975 1936 1810 1936 1313.02 2186Z" stroke="#000000" stroke-width="13.75" stroke-miterlimit="8" fill="#E7E6E6" fill-rule="evenodd"/><path d="M186 2119 682.975 1869 1810 1869 1313.02 2119Z" stroke="#000000" stroke-width="13.75" stroke-miterlimit="8" fill="#E7E6E6" fill-rule="evenodd"/><path d="M186 2052 682.975 1802 1810 1802 1313.02 2052Z" stroke="#000000" stroke-width="13.75" stroke-miterlimit="8" fill="#E7E6E6" fill-rule="evenodd"/><path d="M186 1985 682.975 1735 1810 1735 1313.02 1985Z" stroke="#000000" stroke-width="13.75" stroke-miterlimit="8" fill="#E7E6E6" fill-rule="evenodd"/><path d="M186 1919 682.975 1669 1810 1669 1313.02 1919Z" stroke="#000000" stroke-width="13.75" stroke-miterlimit="8" fill="#E7E6E6" fill-rule="evenodd"/><path d="M1883.87 1669 1883.88 2218.27 1870.13 2218.27 1870.12 1669ZM1897.63 2211.39 1877 2252.64 1856.38 2211.39Z" fill="#ED7D31"/></g></svg>