<svg width="1527" height="802" xmlns="http://www.w3.org/2000/svg" xmlns:xlink="http://www.w3.org/1999/xlink" overflow="hidden"><defs><clipPath id="clip0"><rect x="257" y="1532" width="1527" height="802"/></clipPath></defs><g clip-path="url(#clip0)" transform="translate(-257 -1532)"><rect x="1397" y="1539" width="379" height="788" stroke="#000000" stroke-width="13.75" stroke-miterlimit="8" fill="#E7E6E6"/><rect x="1020" y="1539" width="379" height="788" stroke="#000000" stroke-width="13.75" stroke-miterlimit="8" fill="#E7E6E6"/><rect x="643" y="1539" width="379" height="788" stroke="#000000" stroke-width="13.75" stroke-miterlimit="8" fill="#E7E6E6"/><rect x="264" y="1933" width="1513" height="197" stroke="#000000" stroke-width="13.75" stroke-miterlimit="8" fill="none"/><rect x="264" y="1539" width="379" height="788" stroke="#000000" stroke-width="13.75" stroke-miterlimit="8" fill="#E7E6E6"/><path d="M0 96.875C-1.55322e-14 141.05 41.3366 179.63 100.5 190.674L100.5 173.924 134 210.5 100.5 240.924 100.5 224.174C41.3367 213.13 0.000126879 174.55 0.000126879 130.375Z" fill="#4472C4" fill-rule="evenodd" transform="matrix(1 0 0 -1 321 2241)"/><path d="M134 33.5001C68.9324 33.5001 13.2686 67.2931 2.01819 113.625-10.7777 60.9284 37.9395 10.71 110.831 1.45921 118.481 0.488352 126.233 0.000164523 134 0.000164523Z" fill="#375C9E" fill-rule="evenodd" transform="matrix(1 0 0 -1 321 2241)"/><path d="M484 2221.12 1663.74 2221.12 1663.74 2234.88 484 2234.87ZM1656.87 2207.38 1698.12 2228 1656.87 2248.62Z" fill="#ED7D31"/><rect x="264" y="1736" width="1513" height="197" stroke="#000000" stroke-width="13.75" stroke-miterlimit="8" fill="none"/><rect x="264" y="2130" width="1513" height="197" stroke="#000000" stroke-width="13.75" stroke-miterlimit="8" fill="none"/><rect x="264" y="1539" width="1513" height="197" stroke="#000000" stroke-width="13.75" stroke-miterlimit="8" fill="none"/></g></svg>