<svg width="1527" height="802" xmlns="http://www.w3.org/2000/svg" xmlns:xlink="http://www.w3.org/1999/xlink" overflow="hidden"><defs><clipPath id="clip0"><rect x="257" y="1532" width="1527" height="802"/></clipPath></defs><g clip-path="url(#clip0)" transform="translate(-257 -1532)"><rect x="264" y="1539" width="1513" height="788" stroke="#000000" stroke-width="13.75" stroke-miterlimit="8" fill="#E7E6E6"/><rect x="1362" y="1539" width="340" height="788" stroke="#000000" stroke-width="13.75" stroke-miterlimit="8" fill="#E7E6E6"/><rect x="680" y="1539" width="341" height="788" stroke="#000000" stroke-width="13.75" stroke-miterlimit="8" fill="#E7E6E6"/><rect x="1021" y="1539" width="341" height="788" stroke="#000000" stroke-width="13.75" stroke-miterlimit="8" fill="#E7E6E6"/><rect x="340" y="1539" width="340" height="788" stroke="#000000" stroke-width="13.75" stroke-miterlimit="8" fill="#E7E6E6"/><path d="M850 2024.12 1175.42 2024.13 1175.42 2037.88 850 2037.87ZM1168.54 2010.38 1209.79 2031 1168.54 2051.63Z" fill="#ED7D31"/><rect x="264" y="1580" width="1513" height="177" stroke="#000000" stroke-width="13.75" stroke-miterlimit="8" fill="none"/><rect x="264" y="1757" width="1513" height="176" stroke="#000000" stroke-width="13.75" stroke-miterlimit="8" fill="none"/><rect x="264" y="1933" width="1513" height="176" stroke="#000000" stroke-width="13.75" stroke-miterlimit="8" fill="none"/><rect x="264" y="2109" width="1513" height="176" stroke="#000000" stroke-width="13.75" stroke-miterlimit="8" fill="none"/><path d="M6.875-1.63032e-05 6.87528 117.812-6.87472 117.812-6.875 1.63032e-05ZM20.6253 110.937 0.000360892 152.187-20.6247 110.937Z" fill="#ED7D31" transform="matrix(1 0 0 -1 1192 2009.19)"/><path d="M3.52664e-06-6.875 669.167-6.87466 669.167 6.87534-3.52664e-06 6.875ZM662.292-20.6247 703.542 0.000360892 662.292 20.6253Z" fill="#ED7D31" transform="matrix(-1 0 0 1 1191.54 1839)"/><path d="M512.875 1861 512.875 2153.81 499.125 2153.81 499.125 1861ZM526.625 2146.94 506 2188.19 485.375 2146.94Z" fill="#ED7D31"/><path d="M506 2200.12 1517.77 2200.12 1517.77 2213.88 506 2213.87ZM1510.9 2186.38 1552.15 2207 1510.9 2227.62Z" fill="#ED7D31"/></g></svg>