<svg width="1527" height="802" xmlns="http://www.w3.org/2000/svg" xmlns:xlink="http://www.w3.org/1999/xlink" overflow="hidden"><defs><clipPath id="clip0"><rect x="257" y="1532" width="1527" height="802"/></clipPath></defs><g clip-path="url(#clip0)" transform="translate(-257 -1532)"><rect x="1586" y="1539" width="191" height="788" stroke="#000000" stroke-width="13.75" stroke-miterlimit="8" fill="#E7E6E6"/><rect x="264" y="1539" width="440" height="788" stroke="#000000" stroke-width="13.75" stroke-miterlimit="8" fill="#E7E6E6"/><rect x="704" y="1539" width="441" height="788" stroke="#000000" stroke-width="13.75" stroke-miterlimit="8" fill="#E7E6E6"/><rect x="1145" y="1539" width="440" height="788" stroke="#000000" stroke-width="13.75" stroke-miterlimit="8" fill="#E7E6E6"/><path d="M0 158.687C-2.34256e-14 231.049 41.645 294.246 101.25 312.336L101.25 295.461 135 334.25 101.25 362.961 101.25 346.086C41.6453 327.995 0.000219855 264.798 0.000219855 192.437Z" fill="#4472C4" fill-rule="evenodd" transform="matrix(1 0 0 -1 317 2197)"/><path d="M135 33.7502C65.9986 33.7502 8.1032 94.914 0.765492 175.563-7.16315 88.4189 46.5083 10.2198 120.644 0.89998 125.412 0.300534 130.205 0.000172731 135 0.000172731Z" fill="#375C9E" fill-rule="evenodd" transform="matrix(1 0 0 -1 317 2197)"/><path d="M484 2173.12 1663.74 2173.13 1663.74 2186.88 484 2186.88ZM1656.87 2159.38 1698.12 2180 1656.87 2200.63Z" fill="#ED7D31"/><rect x="264" y="1720" width="1513" height="303" stroke="#000000" stroke-width="13.75" stroke-miterlimit="8" fill="none"/><rect x="264" y="2024" width="1513" height="303" stroke="#000000" stroke-width="13.75" stroke-miterlimit="8" fill="none"/></g></svg>